<?xml version="1.0" standalone="no"?>
<!DOCTYPE svg PUBLIC "-//W3C//DTD SVG 20010904//EN"
 "http://www.w3.org/TR/2001/REC-SVG-20010904/DTD/svg10.dtd">
<svg version="1.0" xmlns="http://www.w3.org/2000/svg"
 width="512.000000pt" height="512.000000pt" viewBox="0 0 512.000000 512.000000"
 preserveAspectRatio="xMidYMid meet">

<g transform="translate(0.000000,512.000000) scale(0.100000,-0.100000)"
fill="#000000" stroke="none">
<path d="M1509 4070 c-71 -21 -130 -95 -175 -216 l-26 -72 -61 -12 c-170 -33
-369 -116 -518 -215 -179 -119 -288 -247 -340 -398 -74 -213 -36 -357 93 -357
110 0 163 73 178 247 10 117 39 192 101 270 78 97 239 197 407 254 47 16 89
29 92 29 3 0 3 -35 -2 -77 -12 -122 -35 -516 -53 -893 -9 -190 -18 -354 -21
-366 -3 -19 -8 -20 -51 -13 -96 15 -143 -17 -143 -97 0 -58 48 -113 127 -146
l56 -23 -6 -122 c-13 -247 -42 -378 -118 -522 -41 -79 -50 -166 -22 -221 41
-80 196 -110 288 -56 126 74 198 309 212 691 l6 171 146 12 c370 30 623 134
829 341 184 185 269 439 242 720 -14 145 -34 220 -92 340 -106 220 -307 365
-619 446 -83 22 -137 29 -264 34 l-160 6 -6 96 c-6 91 -19 135 -43 151 -13 9
-23 9 -57 -2z m258 -459 c250 -52 478 -227 568 -436 66 -154 94 -402 61 -555
-25 -120 -85 -230 -175 -320 -100 -100 -193 -151 -341 -184 -84 -20 -244 -31
-305 -22 l-47 8 6 261 c11 421 39 972 63 1205 l6 62 36 0 c20 0 77 -9 128 -19z"/>
<path d="M3189 2826 c-94 -33 -301 -204 -320 -264 -7 -23 -15 -177 -20 -397
-4 -198 -17 -470 -28 -605 -28 -327 -27 -333 5 -359 15 -12 50 -28 78 -37 58
-18 192 -30 228 -21 40 10 48 45 48 215 0 223 19 351 65 442 90 180 388 581
458 617 29 15 32 14 48 -6 10 -12 21 -43 25 -69 8 -49 -5 -304 -32 -652 -9
-113 -14 -260 -12 -327 4 -111 6 -125 27 -147 42 -44 116 -69 223 -74 91 -4
99 -3 148 24 135 73 310 321 486 689 91 191 133 302 149 390 13 76 10 105 -11
105 -24 0 -63 -65 -152 -251 -48 -101 -110 -226 -136 -276 -141 -271 -338
-496 -389 -444 -20 20 -12 211 22 526 56 537 62 674 32 740 -34 74 -110 130
-194 141 -155 22 -291 -125 -636 -689 -57 -92 -105 -166 -107 -164 -2 2 1 77
7 168 9 140 15 179 44 269 36 115 50 184 61 302 8 101 0 145 -29 153 -46 14
-53 14 -88 1z"/>
</g>
</svg>
