<?xml version="1.0" standalone="no"?>
<!DOCTYPE svg PUBLIC "-//W3C//DTD SVG 20010904//EN"
 "http://www.w3.org/TR/2001/REC-SVG-20010904/DTD/svg10.dtd">
<svg version="1.0" xmlns="http://www.w3.org/2000/svg"
 width="512.000000pt" height="512.000000pt" viewBox="0 0 512.000000 512.000000"
 preserveAspectRatio="xMidYMid meet">
<metadata>
Created by potrace 1.14, written by Peter Selinger 2001-2017
</metadata>
<g transform="translate(0.000000,512.000000) scale(0.100000,-0.100000)"
fill="#000000" stroke="none">
<path d="M1502 4069 c-66 -19 -136 -113 -176 -234 l-16 -50 -107 -26 c-224
-54 -442 -162 -596 -294 -131 -112 -211 -240 -241 -388 -38 -185 1 -277 118
-277 111 0 161 70 176 245 8 94 15 120 44 180 72 146 252 279 474 349 46 14
84 26 86 26 1 0 -1 -33 -6 -72 -10 -97 -44 -680 -58 -993 -6 -137 -13 -259
-16 -271 -3 -20 -7 -20 -56 -13 -28 5 -62 6 -75 3 -37 -10 -63 -51 -63 -100 0
-58 48 -113 127 -146 l56 -23 -7 -123 c-13 -249 -35 -351 -108 -501 -42 -87
-50 -112 -49 -158 1 -106 67 -164 189 -166 116 -1 185 52 241 188 53 128 91
376 91 603 l0 102 53 0 c91 0 298 28 399 54 322 84 584 287 699 543 51 111 72
220 71 373 0 184 -24 298 -92 438 -46 92 -63 116 -143 196 -77 77 -109 100
-192 143 -194 99 -373 143 -579 143 -142 0 -136 -4 -136 93 0 71 -14 130 -36
152 -17 17 -25 17 -72 4z m322 -474 c198 -57 362 -175 462 -331 77 -119 124
-305 124 -483 -1 -201 -59 -351 -189 -481 -82 -83 -134 -116 -244 -156 -117
-42 -326 -66 -417 -48 l-32 7 6 256 c11 416 38 950 62 1205 l7 69 67 -7 c37
-3 106 -17 154 -31z"/>
<path d="M3189 2826 c-87 -31 -291 -196 -317 -255 -12 -29 -17 -106 -23 -391
-4 -203 -16 -468 -29 -618 -26 -326 -26 -339 18 -368 43 -30 153 -54 241 -54
97 0 97 -1 104 265 9 311 19 345 170 570 160 239 300 416 350 442 29 15 32 14
48 -6 35 -43 36 -181 3 -566 -8 -93 -17 -255 -20 -360 -8 -225 -1 -263 51
-294 57 -33 133 -51 219 -51 71 0 87 4 131 29 65 37 175 154 246 261 168 254
367 680 387 827 9 71 6 93 -17 93 -22 0 -63 -69 -158 -270 -138 -291 -230
-449 -340 -585 -59 -73 -128 -127 -157 -123 -46 7 -44 76 19 682 13 131 27
307 31 391 7 153 7 154 -20 208 -38 79 -128 136 -219 137 -137 1 -283 -164
-592 -668 -64 -106 -119 -191 -121 -190 -2 2 2 78 8 168 8 135 15 181 38 251
16 47 36 123 46 170 19 93 25 282 9 297 -18 18 -69 22 -106 8z"/>
</g>
</svg>
